# xmcd
#
# Track frame offsets:
#	150
#	11748
#	21171
#	31658
#	51861
#	67979
#	80364
#	92920
#	112531
#	126264
#	135542
#	144912
#	164511
#	180378
#
# Disc length: 2597 seconds
#
# Revision: 2
# Processed by: cddbd v1.5.2PL0 Copyright (c) Steve Scherf et al.
# Submitted via: EasyCDDAExtractor 12.0.0.1
#
DISCID=a90a230e
DTITLE=Willie Nelson - The Very Best Of Willie Nelson
DYEAR=1900
DGENRE=Country
TTITLE0=On The Road Again
TTITLE1=If You've Got The Money
TTITLE2=Blue Eyes Crying In the Rain
TTITLE3=Angel Flying Too Close To The Ground
TTITLE4=The Pilgrim: Chapter 33
TTITLE5=I'm Movin' On with Hank Snow
TTITLE6=Big River with Waylon Jennings, Johnny Cash, and Kris Kristofferson
TTITLE7=Georgia On My Mind
TTITLE8=If You Can Touch Her At All with Waylon Jennings
TTITLE9=Something To Brag About with Mary Kay Place
TTITLE10=Live Fast Love Hard Die Young
TTITLE11=Last Thing I Needed The First Thing This Morning
TTITLE12=Always On My Mind
TTITLE13=Sweet Memories
EXTD=
EXTT0=
EXTT1=
EXTT2=
EXTT3=
EXTT4=
EXTT5=
EXTT6=
EXTT7=
EXTT8=
EXTT9=
EXTT10=
EXTT11=
EXTT12=
EXTT13=
PLAYORDER=
